<svg width="112" height="44" viewBox="0 0 112 44" fill="none" xmlns="http://www.w3.org/2000/svg">
<path d="M45.7552 11.732C47.3102 11.732 48.5488 12.2343 49.4709 13.2388C50.4112 14.2433 50.8813 15.5886 50.8813 17.2747V25.5619H47.3825V17.5169C47.3825 16.7097 47.1837 16.0819 46.7859 15.6334C46.3881 15.185 45.8276 14.9608 45.1043 14.9608C44.3087 14.9608 43.6849 15.2209 43.2329 15.741C42.7989 16.2612 42.582 17.0146 42.582 18.0012V25.5619H39.0833V17.5169C39.0833 16.7097 38.8844 16.0819 38.4866 15.6334C38.0888 15.185 37.5283 14.9608 36.805 14.9608C36.0275 14.9608 35.4037 15.2209 34.9336 15.741C34.4816 16.2612 34.2556 17.0146 34.2556 18.0012V25.5619H30.7568V12.1087H34.2556V13.5347C35.0692 12.3329 36.3259 11.732 38.0255 11.732C39.689 11.732 40.9185 12.3778 41.7141 13.6693C42.6181 12.3778 43.9652 11.732 45.7552 11.732Z" fill="#3D639D"/>
<path d="M65.6779 23.8937C64.2857 25.2569 62.586 25.9386 60.579 25.9386C58.572 25.9386 56.8724 25.2569 55.4801 23.8937C54.1059 22.5125 53.4189 20.8264 53.4189 18.8353C53.4189 16.8442 54.1059 15.167 55.4801 13.8038C56.8724 12.4226 58.572 11.732 60.579 11.732C62.586 11.732 64.2857 12.4226 65.6779 13.8038C67.0702 15.167 67.7663 16.8442 67.7663 18.8353C67.7663 20.8264 67.0702 22.5125 65.6779 23.8937ZM57.9482 21.499C58.6534 22.1986 59.5303 22.5484 60.579 22.5484C61.6277 22.5484 62.5047 22.1986 63.2099 21.499C63.915 20.7994 64.2676 19.9115 64.2676 18.8353C64.2676 17.759 63.915 16.8711 63.2099 16.1716C62.5047 15.472 61.6277 15.1222 60.579 15.1222C59.5303 15.1222 58.6534 15.472 57.9482 16.1716C57.2611 16.8711 56.9176 17.759 56.9176 18.8353C56.9176 19.9115 57.2611 20.7994 57.9482 21.499Z" fill="#3D639D"/>
<path d="M78.0387 11.732C79.5214 11.732 80.7419 12.2253 81.7002 13.2118C82.6766 14.1984 83.1648 15.5617 83.1648 17.3016V25.5619H79.666V17.7321C79.666 16.8352 79.422 16.1536 78.9338 15.6872C78.4456 15.2029 77.7946 14.9608 76.981 14.9608C76.0769 14.9608 75.3537 15.2388 74.8112 15.7949C74.2688 16.3509 73.9976 17.185 73.9976 18.2972V25.5619H70.4989V12.1087H73.9976V13.6154C74.8474 12.3598 76.1944 11.732 78.0387 11.732Z" fill="#3D639D"/>
<path d="M96.7297 12.1087H100.228V25.5619H96.7297V23.9744C95.681 25.2838 94.2074 25.9386 92.3089 25.9386C90.5007 25.9386 88.9458 25.2569 87.6439 23.8937C86.3601 22.5125 85.7182 20.8264 85.7182 18.8353C85.7182 16.8442 86.3601 15.167 87.6439 13.8038C88.9458 12.4226 90.5007 11.732 92.3089 11.732C94.2074 11.732 95.681 12.3867 96.7297 13.6962V12.1087ZM90.2747 21.5797C90.9799 22.2793 91.8749 22.6291 92.9598 22.6291C94.0447 22.6291 94.9397 22.2793 95.6449 21.5797C96.3681 20.8622 96.7297 19.9474 96.7297 18.8353C96.7297 17.7232 96.3681 16.8173 95.6449 16.1177C94.9397 15.4002 94.0447 15.0415 92.9598 15.0415C91.8749 15.0415 90.9799 15.4002 90.2747 16.1177C89.5696 16.8173 89.217 17.7232 89.217 18.8353C89.217 19.9474 89.5696 20.8622 90.2747 21.5797Z" fill="#3D639D"/>
<path d="M111.429 15.4451H108.364V21.0416C108.364 21.508 108.482 21.8488 108.717 22.064C108.952 22.2793 109.296 22.4049 109.748 22.4407C110.2 22.4587 110.76 22.4497 111.429 22.4138V25.5619C109.024 25.8309 107.325 25.6067 106.33 24.8892C105.354 24.1717 104.866 22.8892 104.866 21.0416V15.4451H102.506V12.1087H104.866V9.39115L108.364 8.3418V12.1087H111.429V15.4451Z" fill="#3D639D"/>
<path d="M45.2264 31.5055C46.4134 31.5055 47.4241 31.9544 48.2586 32.8522C49.1048 33.7383 49.5279 34.8284 49.5279 36.1226C49.5279 37.4168 49.1048 38.5128 48.2586 39.4106C47.4241 40.2967 46.4134 40.7398 45.2264 40.7398C43.9923 40.7398 43.0403 40.3142 42.3704 39.463V43.9927H40.0963V31.7503H42.3704V32.7822C43.0403 31.9311 43.9923 31.5055 45.2264 31.5055ZM43.058 37.9065C43.5163 38.3612 44.0981 38.5886 44.8033 38.5886C45.5084 38.5886 46.0902 38.3612 46.5485 37.9065C47.0187 37.4401 47.2537 36.8455 47.2537 36.1226C47.2537 35.3997 47.0187 34.8109 46.5485 34.3562C46.0902 33.8898 45.5084 33.6567 44.8033 33.6567C44.0981 33.6567 43.5163 33.8898 43.058 34.3562C42.5996 34.8109 42.3704 35.3997 42.3704 36.1226C42.3704 36.8455 42.5996 37.4401 43.058 37.9065Z" fill="#3D639D"/>
<path d="M57.8308 31.7503H60.105V40.4949H57.8308V39.463C57.1492 40.3142 56.1913 40.7398 54.9573 40.7398C53.782 40.7398 52.7712 40.2967 51.925 39.4106C51.0906 38.5128 50.6734 37.4168 50.6734 36.1226C50.6734 34.8284 51.0906 33.7383 51.925 32.8522C52.7712 31.9544 53.782 31.5055 54.9573 31.5055C56.1913 31.5055 57.1492 31.9311 57.8308 32.7822V31.7503ZM53.6351 37.9065C54.0934 38.3612 54.6752 38.5886 55.3804 38.5886C56.0855 38.5886 56.6673 38.3612 57.1257 37.9065C57.5958 37.4401 57.8308 36.8455 57.8308 36.1226C57.8308 35.3997 57.5958 34.8109 57.1257 34.3562C56.6673 33.8898 56.0855 33.6567 55.3804 33.6567C54.6752 33.6567 54.0934 33.8898 53.6351 34.3562C53.1767 34.8109 52.9475 35.3997 52.9475 36.1226C52.9475 36.8455 53.1767 37.4401 53.6351 37.9065Z" fill="#3D639D"/>
<path d="M67.9143 31.7503H70.3472L67.1386 40.4949C66.6803 41.7541 66.0691 42.6636 65.3052 43.2232C64.553 43.7945 63.6128 44.051 62.4845 43.9927V41.894C63.0957 41.9057 63.5775 41.7774 63.9301 41.5093C64.2945 41.2411 64.5824 40.8097 64.794 40.2151L61.18 31.7503H63.6657L65.9575 37.6267L67.9143 31.7503Z" fill="#3D639D"/>
<path d="M0.258495 13.7262C1.31979 9.14151 5.47883 5.71813 10.4533 5.71813C15.4235 5.71813 19.5825 9.14151 20.6417 13.7262C20.6628 13.6407 20.6796 13.5552 20.6964 13.4676C20.833 12.8067 20.9023 12.125 20.9023 11.4265C20.9023 5.73481 16.2242 1.12305 10.4554 1.12305C4.68022 1.12513 0 5.73689 0 11.4286C0 12.0729 0.0588443 12.7046 0.174431 13.3196C0.19965 13.4572 0.229072 13.5927 0.258495 13.7262Z" fill="#E6E6E6"/>
<path d="M5.75862 19.7224C3.05599 15.6214 3.68226 10.3133 6.97334 6.93164C6.88927 6.96083 6.80731 6.99419 6.72745 7.02755C6.09698 7.27565 5.48331 7.59255 4.89487 7.97408C0.0927557 11.0889 -1.25436 17.4728 1.8833 22.2368C5.02307 27.0007 11.4602 28.3392 16.2623 25.2265C16.8066 24.8741 17.3068 24.4801 17.7629 24.0485C17.8637 23.9526 17.9646 23.8546 18.0613 23.7566C13.6143 25.3849 8.46336 23.8254 5.75862 19.7224Z" fill="#E6E6E6"/>
<path d="M20.5164 5.11354C19.9742 4.75703 19.411 4.45681 18.831 4.21288C18.7028 4.15867 18.5725 4.10655 18.4422 4.05859C21.7143 7.46112 22.3133 12.7692 19.5875 16.8598C16.8639 20.9482 11.7045 22.4806 7.26807 20.8231C7.32901 20.8878 7.39206 20.9503 7.45511 21.0087C7.93637 21.484 8.47227 21.9177 9.05861 22.3034C13.8439 25.4432 20.2874 24.1402 23.4503 19.395C26.6152 14.6456 25.3017 8.25338 20.5164 5.11354Z" fill="#E6E6E6"/>
<path d="M22.0386 10.3035C22.0386 11.0019 21.9692 11.6837 21.8326 12.3446C21.8179 12.4301 21.799 12.5156 21.778 12.6031C20.7188 8.01846 16.5597 4.59508 11.5895 4.59508C6.61716 4.59508 2.45813 8.01846 1.39473 12.6031C1.3632 12.4697 1.33588 12.3321 1.31066 12.1966C1.19507 11.5815 1.13623 10.9498 1.13623 10.3056C1.13833 4.61176 5.81856 0 11.5895 0C17.3604 0 22.0386 4.61176 22.0386 10.3035Z" fill="url(#paint0_linear_1_40)"/>
<path d="M6.03061 6.85104C6.61906 6.4695 7.23272 6.1526 7.86319 5.9045C7.94305 5.87114 8.02712 5.83778 8.10908 5.80859C4.818 9.19027 4.19173 14.4963 6.89436 18.5973C9.5991 22.7003 14.7501 24.2598 19.1949 22.6294C19.0983 22.7274 18.9995 22.8254 18.8965 22.9213C18.4405 23.3529 17.9403 23.7469 17.396 24.0993C12.5939 27.2141 6.15671 25.8756 3.01695 21.1096C-0.120717 16.3498 1.2285 9.96585 6.03061 6.85104Z" fill="#3D639D"/>
<path d="M10.1973 21.1784C9.61095 20.7927 9.07504 20.359 8.59378 19.8837C8.53073 19.8232 8.46768 19.7607 8.40674 19.6981C12.8411 21.3556 18.0005 19.8232 20.7262 15.7348C23.452 11.6442 22.853 6.33612 19.5809 2.93359C19.7112 2.98155 19.8414 3.03367 19.9696 3.08788C20.5497 3.33181 21.1129 3.63203 21.6551 3.98854C26.4404 7.12838 27.7539 13.5206 24.5889 18.2679C21.4239 23.0152 14.9826 24.3182 10.1973 21.1784Z" fill="url(#paint1_linear_1_40)"/>
<defs>
<linearGradient id="paint0_linear_1_40" x1="4.45519" y1="14.0138" x2="8.01708" y2="-0.0800619" gradientUnits="userSpaceOnUse">
<stop offset="0.1667" stop-color="#4674B3"/>
<stop offset="0.3322" stop-color="#4878B3"/>
<stop offset="0.4973" stop-color="#4F84B4"/>
<stop offset="0.6624" stop-color="#5998B4"/>
<stop offset="0.8273" stop-color="#69B4B6"/>
<stop offset="0.9909" stop-color="#7CD8B7"/>
<stop offset="1" stop-color="#7DDAB7"/>
</linearGradient>
<linearGradient id="paint1_linear_1_40" x1="11.2501" y1="25.1233" x2="20.3537" y2="5.63382" gradientUnits="userSpaceOnUse">
<stop offset="0.1667" stop-color="#4674B3"/>
<stop offset="0.3322" stop-color="#4878B3"/>
<stop offset="0.4973" stop-color="#4F84B4"/>
<stop offset="0.6624" stop-color="#5998B4"/>
<stop offset="0.8273" stop-color="#69B4B6"/>
<stop offset="0.9909" stop-color="#7CD8B7"/>
<stop offset="1" stop-color="#7DDAB7"/>
</linearGradient>
</defs>
</svg>
